<svg xmlns="http://www.w3.org/2000/svg" width="175.973" height="175.973" viewBox="0 0 175.973 175.973"><defs><style>.a{fill:#f2635f;}</style></defs><path class="a" d="M110.841,91.526l-3.54-3.539q12.186-12.184,24.37-24.37l40.365-40.365c5.059-5.059,5.436-14.326,0-19.315-5.452-5-13.916-5.4-19.314,0l-61.2,61.2-3.539,3.54L63.066,43.751,23.252,3.937C18.193-1.122,8.927-1.5,3.937,3.937c-5,5.452-5.4,13.916,0,19.315L64.37,83.685l4.3,4.3L43.751,112.908c-8.961,8.96-30.854,30.853-39.814,39.814-5.059,5.058-5.436,14.325,0,19.315,5.452,5,13.916,5.4,19.315,0L83.685,111.6l4.3-4.3,24.369,24.369,40.366,40.366c5.058,5.058,14.325,5.435,19.314,0,5-5.453,5.4-13.917,0-19.315Z"/></svg>