<svg xmlns="http://www.w3.org/2000/svg" width="200" height="200.096" viewBox="0 0 200 200.096"><defs><style>.a{fill:#3d8dcc;}</style></defs><path class="a" d="M198.5,81.7A96.98,96.98,0,0,0,118.139,1.6,122.519,122.519,0,0,0,100.036,0c-20.994.062-42.595,6.116-59.5,18.834A105.654,105.654,0,0,0,27.892,29.657,107.436,107.436,0,0,0,17.426,42.51,96.99,96.99,0,0,0,4.459,69.358,101.332,101.332,0,0,0,0,99.8a112.421,112.421,0,0,0,4.447,31.286A96.172,96.172,0,0,0,16.79,157.649a98.5,98.5,0,0,0,21.932,23c15.91,12.222,35.891,18.2,55.751,19.28,20.232,1.1,41.313-3.2,58.909-13.428a90.112,90.112,0,0,0,37.055-41.2,113.65,113.65,0,0,0,5.668-15.4,122.681,122.681,0,0,0,3.088-16.793A111.043,111.043,0,0,0,198.5,81.7Zm-24.723,30.544a99.691,99.691,0,0,1-5.379,20.289,86.531,86.531,0,0,1-9.145,15.821,82.086,82.086,0,0,1-11.4,11.38,85.134,85.134,0,0,1-15.355,8.875,97.319,97.319,0,0,1-19.663,5.226,112.185,112.185,0,0,1-25,.035,96.569,96.569,0,0,1-19.408-5.184,87.178,87.178,0,0,1-15.89-9.208,84.542,84.542,0,0,1-11.77-11.78,87.813,87.813,0,0,1-9.27-16.03,98.485,98.485,0,0,1-5.31-19.989A104.764,104.764,0,0,1,26.01,89.4a93.575,93.575,0,0,1,5.307-19.7,91.052,91.052,0,0,1,9.425-16.179,89.443,89.443,0,0,1,12.8-12.808,89.64,89.64,0,0,1,15.753-9.2,94.4,94.4,0,0,1,20.194-5.416,101.362,101.362,0,0,1,21.171.014,94.574,94.574,0,0,1,19.978,5.359,89.694,89.694,0,0,1,15.954,9.31,89.22,89.22,0,0,1,12.6,12.6,90.747,90.747,0,0,1,9.421,16.091,93.488,93.488,0,0,1,5.374,19.881A107.219,107.219,0,0,1,173.774,112.244Z"/></svg>